<svg id="Layer_1" data-name="Layer 1" xmlns="http://www.w3.org/2000/svg" viewBox="0 0 1000 1000"><defs><style>.cls-1{fill:#00274c;}</style></defs><path class="cls-1" d="M439.33,745.59c21.54,5.6,36.12,5.14,39-1.24,7.19-16.14-18.27-30.93-44.12-43.27-2.27-1.08-4.29-2-5.95-2.88-2.66-1.34-7-3.58-12.32-6.37-3.33,3.13-18.46,18.73-15,39.94,10.57,3.85,20.9,7.56,28.55,10.45C431.37,742.93,438.14,745.28,439.33,745.59Z"/><path class="cls-1" d="M330.35,675.45c-5,14.61,7,29.8,32.1,40.64,2.51,1.08,5.29,2.3,8.3,3.62,2.29,1,4.73,2.08,7.3,3.19.78-19.14,10.5-33.85,17.32-41.88-19.6-10.36-42.48-22.53-55.52-29.48C337.05,657.82,333.49,666.36,330.35,675.45Z"/><path class="cls-1" d="M501.33,730.6c14,6.1,22.57,4.7,25.81.74s5.8-11.56-5.37-28.17-25.39-28.21-43.57-43a78.82,78.82,0,0,0-17.26,29.33C477.68,698.71,497,712.39,501.33,730.6Z"/><path class="cls-1" d="M438.32,678.17c.72.37,1.53.77,2.4,1.18a101,101,0,0,1,19.74-33c-11.26-8.49-24.16-17.79-38.83-28.31-28.76-20.61-45.42-22.76-54.32-20.93-6.43,1.32-11.55,5.25-15.63,12-7.38,12.22-4.26,20.33-4.23,20.41.15.3.27.6.39.9C368.77,641.54,425.12,671.53,438.32,678.17Z"/><path class="cls-1" d="M652.22,408.91c15.16-1.65,36.15-.14,59.63,12.43,5-30.75,11.51-55.26,17-69.2,5.78-14.77,2.84-28.57-3.24-33.59s-16.22-7-33.14,3.16c-13.91,8.37-20.2,20.48-29,37.48-9.52,18.35-14.13,34.85-18.16,50.75C647.48,409.53,649.8,409.18,652.22,408.91Z"/><path class="cls-1" d="M639.65,434.46c-1,4.67-2.4,10.87-4.64,20.29-1.91,8.05-11.7,46.8-19.79,58.36v0S606.7,556,649.4,591a367.55,367.55,0,0,0,49.51,33.61c1.33-5.53,2.53-11.07,3.35-16.81,3.86-27,3.36-41.58,2.48-52.86-1.92-24.66-.83-71.52,3.7-109.54C679.23,426.68,654.16,429.7,639.65,434.46Z"/><path class="cls-1" d="M201.64,453.15a25.41,25.41,0,0,0-11.83,4c-8.42,5.41-10.51,12.08-11.56,19.31-1.26,8.73,3.92,18.4,8.15,20.91,7.73,4.58,11.27,5.12,28.31,9.22,8.44,2,24.76,5.57,35.38,7.94A243.37,243.37,0,0,1,201.64,453.15Z"/><path class="cls-1" d="M735.47,790.22c-12.4-16.5-25.43-30.49-35.26-56.61a167.12,167.12,0,0,1-8-29.28c-20.18-11.68-58.87-35.37-74.65-53.89-21.49-25.23-34.27-74.16-16.79-135.33a102.75,102.75,0,0,1-16.41-7.72,241.45,241.45,0,0,1-170.87,70.55c-6.83,0-13.58-.3-20.27-.85l-.56.27c12.62,3.91,26.54,11.35,42,22.42,19.34,13.86,35.76,25.74,49.6,36.57l.56.44c24.46,19.18,40.95,32.91,51,50.79,5.41,9.66,11.56,21.61,12.68,32.17,1.15,11-3.1,22.68-9.86,29.79-7.17,7.55-17.53,9.82-30.93,6.8a77.14,77.14,0,0,1-9-2.68c-8.94,19.73-32.57,21-59.52,15A259.36,259.36,0,0,1,410.12,760c7.66,13.61,20.82,34.08,36,47.06,39.57,33.86,59.33,34.32,82.42,59.35,25,27.05,39.46,63.19,42.1,65.11A386.1,386.1,0,0,0,766,833.22C758,820.2,747.27,805.91,735.47,790.22Z"/><path class="cls-1" d="M412.71,566.72c18.76-12.2,38.1-36.88,33.55-78.16a11,11,0,0,0,2.05-2.42c.92-1.47,23.21-35.89,81-26.86a9.84,9.84,0,0,0,1.42.12c13,15.5,20.47,24.08,29.75,31.85a176.89,176.89,0,0,0,23.94,16.14A241.47,241.47,0,0,0,655.78,335.7c0-133.79-108.46-242.24-242.24-242.24S171.3,201.91,171.3,335.7a241.17,241.17,0,0,0,30.34,117.45c5-.47,10.55.07,17.45.56,21.69,1.52,39.94,4.13,54.32,6.51,6.23,32.28-6.81,50.37-12.78,56.7l-1.34-.33c-1.51-.39-4.89-1.15-9.2-2.11a241.3,241.3,0,0,0,143.18,62.61c1.36-.65,2.78-1.33,4.27-2.06C406.31,570.74,410.93,568.57,412.71,566.72Zm86.2-147.27c4.46,5.95,8.57,11.27,12.19,15.89-37.39-.2-60.39,15.73-72.17,27.34-5.48-15-13.94-32.72-20.9-46,9.87-14,27.16-30.3,55-33.24C488.86,405.4,488.6,405.69,498.91,419.45Zm-68.5-90.51h0c6.72,8.3,17.47,21.47,27.55,34.42-22.6,5.47-39.69,18.21-51.77,32.12-5.72-10-12.39-21.54-13.28-23.11a190.36,190.36,0,0,0-13-20C389.17,339.29,406.86,321.22,430.41,328.94Zm-76.69-46.49c4-7.67,12.72-13.91,21.39-13.72,9.27.21,15.45,7.69,25.3,19.61,4.12,5,8.69,11.09,12.7,16.65-19.61,2.22-35.66,14.83-46.85,28.34-1.05-1.78-2.12-3.72-3.23-5.91C355.16,312,346.87,295.75,353.72,282.45ZM333.1,534.11c-14.41-4.06-33.17-8.37-48.44-11.79,7.71-11.91,15.34-31.06,12.08-58.06h0c9.44,1.56,33.17,6.58,58.77,11.93C359.32,522.68,334.85,533.41,333.1,534.11Zm25.79,8.35c10.17-10.73,20.54-29.6,19.36-61.54,17.28,3.56,33.74,6.84,45.59,8.9,6,48.61-28.79,61.6-34.35,63.35C379.73,549.55,368.52,545.72,358.89,542.46Z"/></svg>